<?xml version="1.0" encoding="UTF-8"?>
<svg id="Layer_2" data-name="Layer 2" xmlns="http://www.w3.org/2000/svg" viewBox="0 0 90.2 110.09">
  <defs>
    <style>
      .cls-1 {
        fill: #19134a;
      }
    </style>
  </defs>
  <g id="Layer_1-2" data-name="Layer 1">
    <g>
      <path class="cls-1" d="M27.37,5.27l3.06,1.96c.08.05.18.05.26,0L43.34.03c.12-.07.28-.03.35.1l9.19,16.77c.07.12.02.28-.1.34l-23.62,12.94c-.12.07-.28.02-.34-.1l-10.68-19.5c-.07-.12-.02-.27.1-.34l8.89-4.98c.08-.05.18-.04.26,0Z"/>
      <path class="cls-1" d="M60.64,30.88c1.34,1.33,2.26,2.66,2.88,3.71-2.45.69-4.91,1.38-7.36,2.07-.65.18-.96.94-.59,1.52.24.38.48.79.73,1.23.46.83.83,1.68,1.04,2.48l-19.4,4.86-2.24-13.28c-.32-1.91.46-3.85,2.05-4.98,3.25-2.3,8.18-2.67,9.02-2.74,5.08-.43,8.91,1.5,10.45,2.41.99.61,2.2,1.48,3.43,2.7Z"/>
      <path class="cls-1" d="M56.04,55.07c-5.12,1.05-10.88,2.89-15.87,3.93-7.98,2.74-22.8,3.91-30.09,20.43-.99,2.24-1.88,5.03-2.3,8.41-.01.12.02.24.1.33l5.24,6.18c.26.31-.01.78-.42.7l-9.22-1.9c-.18-.04-.37.05-.46.21L.05,98.72c-.11.2-.04.46.16.58l17.44,10.39c.22.13.5.04.61-.19l3.72-7.98c.11-.24.42-.32.64-.17.59.41,1.18.83,1.77,1.24.2.14.48.08.61-.13,1.44-2.35,2.87-4.77,4.29-7.26,1.79-3.13,3.47-6.21,5.05-9.24,1.74-3.33,3.84-6.44,6.31-9.27,1.31-1.49,2.61-2.99,3.92-4.48.27-.31.77-.1.75.3-.11,2.16-.21,4.33-.32,6.49v.02c.13,15.81,3.67,18.66,6.41,21.82,3.77,4.35,11.43,5.15,13.35,5.3.18.01.35-.09.42-.26l3.24-7.66c.18-.42.81-.31.83.15l.36,9.7c0,.18.13.34.31.4l5.45,1.61c.22.07.46-.06.53-.28l5.34-16.85c.07-.23-.05-.47-.28-.54l-7.87-2.54c-.23-.07-.35-.33-.27-.55l.96-2.68c.09-.24-.05-.5-.3-.56-1.6-.39-6.99-1.93-10.47-5.75-1.71-1.89-2.34-4.53-1.71-7l4.07-16c-.97.13-1.27.37-3.15.25s-3.59-.72-5.1-1.74c-.43-.29-.81-.56-1.08-.76Z"/>
      <path class="cls-1" d="M5.4,60.98l12.81,3.31,5.91-3.97c-.54-.66-1.54-2.08-1.91-4.15-.28-1.6-.07-2.92.12-3.7-2.19-.71-4.38-1.42-6.57-2.13,0,0-10.84,7.28-10.84,7.28l.15.89,6.86-1.19c.27-.78,1.1-1.32,2.08-1.07.36.09.69.33.9.64.73,1.14.04,2.46-1.12,2.65-.67.11-1.31-.2-1.66-.72l-6.89,1.07.16,1.1Z"/>
      <path class="cls-1" d="M66.39,42.19c3.63-.82,7.26-1.63,10.89-2.45s7.26-1.63,10.89-2.45l2.04,7.1c-7.78,1.87-15.57,3.73-23.35,5.6.16-1.24.25-2.8.09-4.57-.11-1.22-.32-2.31-.55-3.24Z"/>
      <path class="cls-1" d="M58.6,48.2c.01,1.77-.44,3.15-.76,3.95-12.04,2.88-31.66,7.56-31.66,7.56-.47-.75-1.04-1.86-1.41-3.3-.48-1.9-.37-3.52-.22-4.52,11.08-2.54,22.16-5.08,33.24-7.62.33.79.8,2.17.81,3.93Z"/>
    </g>
  </g>
</svg>